<svg width="18" height="19" viewBox="0 0 18 19" fill="none" xmlns="http://www.w3.org/2000/svg">
<g clip-path="url(#clip0_834_5284)">
<path fill-rule="evenodd" clip-rule="evenodd" d="M0 9.50088C0 7.15928 0.913283 4.91359 2.53894 3.25783C4.16459 1.60207 6.36945 0.671875 8.66848 0.671875C10.9675 0.671875 13.1724 1.60207 14.798 3.25783C16.4237 4.91359 17.337 7.15928 17.337 9.50088C17.337 11.8425 16.4237 14.0882 14.798 15.7439C13.1724 17.3997 10.9675 18.3299 8.66848 18.3299C6.36945 18.3299 4.16459 17.3997 2.53894 15.7439C0.913283 14.0882 0 11.8425 0 9.50088H0ZM8.1738 13.2797L13.1645 6.92516L12.263 6.19059L8.00736 11.6069L4.99304 9.04883L4.25333 9.95292L8.1738 13.2809V13.2797Z" fill="white"/>
</g>
<defs>
<clipPath id="clip0_834_5284">
<rect width="17.337" height="17.658" fill="white" transform="translate(0 0.671875)"/>
</clipPath>
</defs>
</svg>
