<svg width="9" height="10" viewBox="0 0 9 10" fill="none" xmlns="http://www.w3.org/2000/svg">
<path d="M4.49403 0.431641C6.96476 0.431641 8.96755 2.43444 8.96755 4.90516C8.96755 7.37589 6.96476 9.37868 4.49403 9.37868C2.0233 9.37868 0.0205078 7.37589 0.0205078 4.90516C0.0205078 2.43444 2.0233 0.431641 4.49403 0.431641ZM4.49403 2.22105C4.37538 2.22105 4.2616 2.26818 4.1777 2.35208C4.09381 2.43597 4.04668 2.54976 4.04668 2.6684V4.90516C4.0467 5.0238 4.09385 5.13757 4.17775 5.22144L5.51981 6.5635C5.60418 6.64499 5.71718 6.69008 5.83448 6.68906C5.95177 6.68804 6.06397 6.64099 6.14692 6.55805C6.22986 6.47511 6.27691 6.3629 6.27793 6.24561C6.27894 6.12832 6.23385 6.01531 6.15236 5.93094L4.94138 4.71996V2.6684C4.94138 2.54976 4.89425 2.43597 4.81036 2.35208C4.72646 2.26818 4.61268 2.22105 4.49403 2.22105Z" fill="white"/>
</svg>
