<svg width="160" height="161" viewBox="0 0 160 161" fill="none" xmlns="http://www.w3.org/2000/svg">
<path d="M79.9999 76.849C75.5796 76.849 71.3404 75.093 68.2148 71.9674C65.0892 68.8418 63.3333 64.6026 63.3333 60.1823C63.3333 55.762 65.0892 51.5228 68.2148 48.3972C71.3404 45.2716 75.5796 43.5156 79.9999 43.5156C84.4202 43.5156 88.6594 45.2716 91.785 48.3972C94.9106 51.5228 96.6666 55.762 96.6666 60.1823C96.6666 62.371 96.2355 64.5383 95.3979 66.5603C94.5603 68.5824 93.3327 70.4198 91.785 71.9674C90.2374 73.515 88.4001 74.7427 86.378 75.5803C84.3559 76.4179 82.1886 76.849 79.9999 76.849ZM79.9999 13.5156C67.6231 13.5156 55.7533 18.4323 47.0016 27.184C38.2499 35.9357 33.3333 47.8055 33.3333 60.1823C33.3333 95.1823 79.9999 146.849 79.9999 146.849C79.9999 146.849 126.667 95.1823 126.667 60.1823C126.667 47.8055 121.75 35.9357 112.998 27.184C104.247 18.4323 92.3767 13.5156 79.9999 13.5156Z" fill="#0F0F0F"/>
</svg>
