<svg width="553" height="320" viewBox="0 0 553 320" fill="none" xmlns="http://www.w3.org/2000/svg">
<path d="M552.505 4.64844V274.215H477.561V166.006H386.176V274.215H311.233V4.64844H386.176V105.975H477.561V4.64844H552.505Z" fill="white"/>
<path d="M194.579 319.333L164.755 274.597C156.343 276.126 147.803 276.891 139.136 276.891C113.9 276.891 90.7033 271.028 69.5458 259.302C48.3883 247.321 31.5643 230.88 19.0737 209.977C6.83804 188.82 0.720215 164.986 0.720215 138.475C0.720215 111.964 6.83804 88.2577 19.0737 67.3552C31.5643 46.1977 48.3883 29.756 69.5458 18.0302C90.7033 6.30433 113.9 0.441406 139.136 0.441406C164.627 0.441406 187.824 6.30433 208.726 18.0302C229.884 29.756 246.58 46.1977 258.816 67.3552C271.052 88.2577 277.17 111.964 277.17 138.475C277.17 160.652 272.709 181.172 263.787 200.036C254.865 218.644 242.629 234.193 227.08 246.684L284.052 319.333H194.579ZM77.1931 138.475C77.1931 159.632 82.6736 176.456 93.6348 188.947C104.596 201.183 119.763 207.301 139.136 207.301C158.254 207.301 173.294 201.055 184.255 188.565C195.471 176.074 201.079 159.378 201.079 138.475C201.079 117.063 195.471 100.238 184.255 88.0028C173.294 75.5123 158.254 69.267 139.136 69.267C119.763 69.267 104.596 75.5123 93.6348 88.0028C82.6736 100.238 77.1931 117.063 77.1931 138.475Z" fill="white"/>
</svg>
