<svg width="56" height="55" viewBox="0 0 56 55" fill="none" xmlns="http://www.w3.org/2000/svg">
<g clip-path="url(#clip0_834_4887)">
<path fill-rule="evenodd" clip-rule="evenodd" d="M9.89682 15.4013V18.1168H7.18136C6.10108 18.1168 5.06504 18.5459 4.30117 19.3098C3.53729 20.0737 3.10815 21.1097 3.10815 22.19V41.1983C3.10815 42.2786 3.53729 43.3146 4.30117 44.0785C5.06504 44.8423 6.10108 45.2715 7.18136 45.2715H44.2927C44.8276 45.2715 45.3573 45.1661 45.8515 44.9614C46.3457 44.7567 46.7947 44.4567 47.1729 44.0785C47.5512 43.7002 47.8512 43.2512 48.0559 42.757C48.2606 42.2628 48.3659 41.7332 48.3659 41.1983V38.4828H51.0814C53.3262 38.4828 55.1546 36.6544 55.1546 34.4096V15.4013C55.1546 13.1565 53.3262 11.3281 51.0814 11.3281H13.97C11.7252 11.3281 9.89682 13.1565 9.89682 15.4013ZM14.4226 15.8539V18.1168H44.2927C44.8276 18.1168 45.3573 18.2222 45.8515 18.4268C46.3457 18.6315 46.7947 18.9316 47.1729 19.3098C47.5512 19.688 47.8512 20.1371 48.0559 20.6312C48.2606 21.1254 48.3659 21.6551 48.3659 22.19V33.957H50.6288V15.8539H14.4226ZM21.2113 31.6941C21.2113 30.4938 21.6881 29.3427 22.5368 28.4939C23.3856 27.6452 24.5367 27.1684 25.7371 27.1684C26.9374 27.1684 28.0885 27.6452 28.9373 28.4939C29.786 29.3427 30.2628 30.4938 30.2628 31.6941C30.2628 32.8944 29.786 34.0456 28.9373 34.8943C28.0885 35.7431 26.9374 36.2199 25.7371 36.2199C24.5367 36.2199 23.3856 35.7431 22.5368 34.8943C21.6881 34.0456 21.2113 32.8944 21.2113 31.6941Z" fill="white"/>
</g>
<defs>
<clipPath id="clip0_834_4887">
<rect width="54.3094" height="54.3094" fill="white" transform="translate(0.845215 0.015625)"/>
</clipPath>
</defs>
</svg>
