<svg width="6" height="10" viewBox="0 0 6 10" fill="none" xmlns="http://www.w3.org/2000/svg">
<g clip-path="url(#clip0_168_269)">
<path d="M5.35031 3.94677V6.02376C5.35031 6.1569 5.30375 6.27007 5.21065 6.36327C5.11754 6.45647 5.00448 6.50307 4.87147 6.50307C4.73846 6.50307 4.6254 6.45647 4.53229 6.36327C4.43918 6.27007 4.39263 6.1569 4.39263 6.02376V4.26631H4.0734V8.81972C4.0734 8.97283 4.01853 9.1043 3.9088 9.21414C3.79906 9.32399 3.66772 9.37891 3.51475 9.37891C3.36179 9.37891 3.23044 9.32399 3.12071 9.21414C3.01097 9.1043 2.95611 8.97283 2.95611 8.81972V6.50307H2.63688V8.81972C2.63688 8.97283 2.58201 9.1043 2.47228 9.21414C2.36254 9.32399 2.23119 9.37891 2.07823 9.37891C1.92527 9.37891 1.79392 9.32399 1.68419 9.21414C1.57445 9.1043 1.51958 8.97283 1.51958 8.81972V4.26631H1.20036V6.02376C1.20036 6.1569 1.1538 6.27007 1.0607 6.36327C0.967587 6.45647 0.854528 6.50307 0.721516 6.50307C0.588505 6.50307 0.475446 6.45647 0.382338 6.36327C0.28923 6.27007 0.242676 6.1569 0.242676 6.02376V3.94677C0.242676 3.68049 0.335784 3.45415 0.521999 3.26776C0.708215 3.08136 0.934334 2.98816 1.20036 2.98816H4.39263C4.65865 2.98816 4.88477 3.08136 5.07099 3.26776C5.2572 3.45415 5.35031 3.68049 5.35031 3.94677ZM3.58708 0.918656C3.58708 0.918656 3.64153 0.973161 3.75043 1.08217C3.85934 1.19118 3.91379 1.40046 3.91379 1.71001C3.91379 2.01956 3.80488 2.28335 3.58708 2.50136C3.36927 2.71938 3.10574 2.82839 2.79649 2.82839C2.48724 2.82839 2.22371 2.71938 2.00591 2.50136C1.7881 2.28335 1.6792 2.01956 1.6792 1.71001C1.6792 1.40046 1.7881 1.13667 2.00591 0.918656C2.22371 0.700639 2.48724 0.59163 2.79649 0.59163C3.10574 0.59163 3.36927 0.700639 3.58708 0.918656Z" fill="white"/>
</g>
<defs>
<clipPath id="clip0_168_269">
<rect width="5.11473" height="8.94704" fill="white" transform="matrix(1 0 0 -1 0.238281 9.37891)"/>
</clipPath>
</defs>
</svg>
