<svg width="37" height="37" viewBox="0 0 37 37" fill="none" xmlns="http://www.w3.org/2000/svg">
<path fill-rule="evenodd" clip-rule="evenodd" d="M16.8543 13.2388C17.6315 12.1915 17.9102 11.0877 17.0312 10.1134C15.0588 7.35343 13.7323 5.64667 12.9002 4.82474C11.3184 3.26214 8.71625 3.47351 7.34627 4.8234C6.61043 5.54845 6.36132 5.79743 5.60578 6.56485C1.3973 10.7756 3.96385 19.6769 10.7867 26.5065C17.6079 33.3344 26.5084 35.9023 30.7257 31.6827C31.4229 31.0106 32.0132 30.42 32.4788 29.9279C33.8213 28.5089 34.0252 26.0215 32.47 24.4056C31.6726 23.5771 30.0451 22.3146 27.169 20.2573C26.2881 19.4697 25.2437 19.6404 24.2861 20.2686C23.8255 20.5708 23.4903 20.8765 22.8574 21.51L21.708 22.66C21.5567 22.8115 19.5011 21.7821 17.5056 19.7847C15.5092 17.7862 14.4804 15.7305 14.6311 15.5799C14.9418 15.2692 15.3252 14.8856 15.7813 14.4291C15.9821 14.2281 16.0781 14.1307 16.2012 14.0013C16.4577 13.7317 16.6701 13.4871 16.8543 13.2388ZM23.8281 24.7813L24.9777 23.6311C25.3261 23.2824 25.5518 23.068 25.7355 22.9202C28.255 24.7295 29.7141 25.8672 30.3101 26.4865C30.668 26.8583 30.6124 27.5367 30.3013 27.8655C29.8708 28.3205 29.3115 28.8801 28.6252 29.5421C25.8981 32.2703 18.7134 30.1975 12.9072 24.3856C7.09925 18.5719 5.02736 11.3861 7.73383 8.67816C8.48632 7.9139 8.72474 7.67561 9.45007 6.96091C9.72202 6.69294 10.4628 6.63277 10.7936 6.95958C11.4342 7.59239 12.6225 9.11392 14.3706 11.5489C14.2801 11.6613 14.1671 11.7882 14.0295 11.9328C13.9286 12.0389 13.8445 12.1242 13.6606 12.3082C13.2049 12.7644 12.8219 13.1476 12.5116 13.4579C10.5569 15.4124 12.2216 18.739 15.385 21.9055C18.5463 25.0699 21.8741 26.7365 23.8281 24.7813Z" fill="white"/>
</svg>
