<svg width="37" height="37" viewBox="0 0 37 37" fill="none" xmlns="http://www.w3.org/2000/svg">
<path fill-rule="evenodd" clip-rule="evenodd" d="M18.5698 35.7843L19.5564 34.9229C27.8529 27.6786 32.0698 21.3531 32.0698 15.793C32.0698 7.91896 25.9242 2.29297 18.5698 2.29297C11.2154 2.29297 5.06982 7.91896 5.06982 15.793C5.06982 21.3531 9.28679 27.6786 17.5832 34.9229L18.5698 35.7843ZM18.5698 31.7881C11.5297 25.4433 8.06982 20.0668 8.06982 15.793C8.06982 9.63787 12.816 5.29297 18.5698 5.29297C24.3237 5.29297 29.0698 9.63787 29.0698 15.793C29.0698 20.0668 25.6099 25.4433 18.5698 31.7881ZM18.5698 8.29259C22.7119 8.29259 26.0698 11.6505 26.0698 15.7926C26.0698 19.9347 22.7119 23.2926 18.5698 23.2926C14.4276 23.2926 11.0698 19.9347 11.0698 15.7926C11.0698 11.6505 14.4276 8.29259 18.5698 8.29259ZM14.0697 15.7922C14.0697 13.3069 16.0844 11.2922 18.5697 11.2922C21.055 11.2922 23.0697 13.3069 23.0697 15.7922C23.0697 18.2775 21.055 20.2922 18.5697 20.2922C16.0844 20.2922 14.0697 18.2775 14.0697 15.7922Z" fill="white"/>
</svg>
