<svg width="10" height="11" viewBox="0 0 10 11" fill="none" xmlns="http://www.w3.org/2000/svg">
<g clip-path="url(#clip0_168_1442)">
<path d="M6.83404 6.63957L8.48753 5.03559L6.20722 4.70076L5.18595 2.63773L4.16468 4.70076L1.88437 5.03559L3.53786 6.63957L3.1434 8.91322L5.18595 7.8385L7.22309 8.91322L6.83404 6.63957ZM9.68171 4.71156C9.68171 4.79077 9.63488 4.87718 9.54122 4.97079L7.57973 6.8826L8.04443 9.5829C8.04804 9.6081 8.04984 9.6441 8.04984 9.69091C8.04984 9.87093 7.97599 9.96094 7.82829 9.96094C7.75985 9.96094 7.6878 9.93934 7.61215 9.89613L5.18595 8.62159L2.75975 9.89613C2.6805 9.93934 2.60845 9.96094 2.54361 9.96094C2.46796 9.96094 2.41122 9.93483 2.3734 9.88263C2.33557 9.83042 2.31666 9.76652 2.31666 9.69091C2.31666 9.66931 2.32026 9.6333 2.32747 9.5829L2.79217 6.8826L0.825275 4.97079C0.735215 4.87358 0.690186 4.78717 0.690186 4.71156C0.690186 4.57834 0.791052 4.49553 0.992785 4.46313L3.70537 4.06889L4.92118 1.61162C4.98962 1.464 5.07788 1.39019 5.18595 1.39019C5.29402 1.39019 5.38228 1.464 5.45072 1.61162L6.66653 4.06889L9.37912 4.46313C9.58085 4.49553 9.68171 4.57834 9.68171 4.71156Z" fill="white"/>
</g>
<defs>
<clipPath id="clip0_168_1442">
<rect width="8.99153" height="9.87537" fill="white" transform="matrix(1 0 0 -1 0.690552 10.7422)"/>
</clipPath>
</defs>
</svg>
