<svg width="6" height="4" viewBox="0 0 6 4" fill="none" xmlns="http://www.w3.org/2000/svg">
<path d="M5.83248 1.30599L3.29 3.84505C3.2466 3.88845 3.1952 3.91016 3.13581 3.91016C3.07641 3.91016 3.02501 3.88845 2.98161 3.84505L0.439127 1.30599C0.395725 1.26259 0.374023 1.21062 0.374023 1.15009C0.374023 1.08955 0.395725 1.03758 0.439127 0.99418L1.00793 0.428803C1.05133 0.3854 1.10273 0.363699 1.16213 0.363699C1.22152 0.363699 1.27292 0.3854 1.31632 0.428803L3.13581 2.24829L4.95529 0.428803C4.99869 0.3854 5.05009 0.363699 5.10949 0.363699C5.16888 0.363699 5.22028 0.3854 5.26368 0.428803L5.83248 0.99418C5.87589 1.03758 5.89759 1.08955 5.89759 1.15009C5.89759 1.21062 5.87589 1.26259 5.83248 1.30599Z" fill="white"/>
</svg>
