<svg width="17" height="20" viewBox="0 0 17 20" fill="none" xmlns="http://www.w3.org/2000/svg">
<g clip-path="url(#clip0_10_469)">
<g clip-path="url(#clip1_10_469)">
<g clip-path="url(#clip2_10_469)">
<path d="M1 11.7074C1 14.3144 2.54296 15.751 4.29874 15.751C5.8949 15.751 7.11861 14.4741 7.11861 12.9311C7.11861 11.3349 6.05452 10.2176 4.56477 10.2176C4.29874 10.2176 3.9263 10.2708 3.8731 10.2708C4.03271 8.56826 5.57567 6.44004 7.27823 5.32273L5.30964 3.72656C2.86219 5.48234 1 8.46185 1 11.7074ZM9.51286 11.7074C9.51286 14.3144 11.0558 15.751 12.8116 15.751C14.4078 15.751 15.6847 14.4741 15.6847 12.9311C15.6847 11.3349 14.5674 10.2176 13.0776 10.2176C12.8116 10.2176 12.4392 10.2708 12.386 10.2708C12.5988 8.56826 14.0885 6.44004 15.7911 5.32273L13.8225 3.72656C11.375 5.48234 9.51286 8.46185 9.51286 11.7074Z" fill="#B3E0FF"/>
</g>
</g>
</g>
<defs>
<clipPath id="clip0_10_469">
<rect width="15.3705" height="18.8338" fill="white" transform="translate(0.92627 0.476562)"/>
</clipPath>
<clipPath id="clip1_10_469">
<rect width="15.3705" height="18.8338" fill="white" transform="translate(0.926025 0.476562)"/>
</clipPath>
<clipPath id="clip2_10_469">
<rect width="15.3705" height="12.4146" fill="white" transform="translate(0.925781 3.68555)"/>
</clipPath>
</defs>
</svg>
