<svg width="15" height="16" viewBox="0 0 15 16" fill="none" xmlns="http://www.w3.org/2000/svg">
<g clip-path="url(#clip0_168_776)">
<path d="M14.528 6.06231C14.528 6.1822 14.4571 6.31299 14.3154 6.45468L11.3481 9.34841L12.0511 13.4356C12.0566 13.4738 12.0593 13.5282 12.0593 13.5991C12.0593 13.7135 12.0307 13.8103 11.9735 13.8893C11.9162 13.9683 11.8331 14.0078 11.7241 14.0078C11.6206 14.0078 11.5116 13.9751 11.3972 13.9097L7.72687 11.9806L4.05657 13.9097C3.93668 13.9751 3.82769 14.0078 3.7296 14.0078C3.61515 14.0078 3.52932 13.9683 3.4721 13.8893C3.41488 13.8103 3.38627 13.7135 3.38627 13.5991C3.38627 13.5664 3.39172 13.5119 3.40262 13.4356L4.10562 9.34841L1.13014 6.45468C0.993901 6.30754 0.925781 6.17675 0.925781 6.06231C0.925781 5.86067 1.07837 5.73533 1.38355 5.68629L5.48709 5.08956L7.32633 1.37021C7.42987 1.14678 7.56338 1.03506 7.72687 1.03506C7.89036 1.03506 8.02387 1.14678 8.12742 1.37021L9.96665 5.08956L14.0702 5.68629C14.3754 5.73533 14.528 5.86067 14.528 6.06231Z" fill="#D5AE10"/>
</g>
<defs>
<clipPath id="clip0_168_776">
<rect width="13.6022" height="14.6485" fill="white" transform="matrix(1 0 0 -1 0.92627 15.4219)"/>
</clipPath>
</defs>
</svg>
